<svg width="78" height="13" viewBox="0 0 78 13" fill="none" xmlns="http://www.w3.org/2000/svg">
<path d="M0.96 4H2.912V12H0.96V4ZM1.952 2.968C1.664 2.968 1.42133 2.87467 1.224 2.688C1.02667 2.496 0.928 2.256 0.928 1.968C0.928 1.68533 1.02667 1.448 1.224 1.256C1.42133 1.064 1.66133 0.967999 1.944 0.967999C2.22667 0.967999 2.464 1.064 2.656 1.256C2.85333 1.448 2.952 1.68533 2.952 1.968C2.952 2.256 2.856 2.496 2.664 2.688C2.472 2.87467 2.23467 2.968 1.952 2.968ZM5.26625 12V-9.53674e-07H7.21825V12H5.26625ZM9.54125 4H11.4933V12H9.54125V4ZM10.5333 2.968C10.2453 2.968 10.0026 2.87467 9.80525 2.688C9.60792 2.496 9.50925 2.256 9.50925 1.968C9.50925 1.68533 9.60792 1.448 9.80525 1.256C10.0026 1.064 10.2426 0.967999 10.5253 0.967999C10.8079 0.967999 11.0453 1.064 11.2373 1.256C11.4346 1.448 11.5333 1.68533 11.5333 1.968C11.5333 2.256 11.4373 2.496 11.2453 2.688C11.0533 2.87467 10.8159 2.968 10.5333 2.968ZM19.6607 4H21.6128V12H19.6607L19.5728 11.008C19.3541 11.3653 19.0634 11.656 18.7007 11.88C18.3434 12.0987 17.9194 12.208 17.4288 12.208C16.8368 12.208 16.2821 12.096 15.7648 11.872C15.2474 11.648 14.7914 11.3387 14.3967 10.944C14.0074 10.5493 13.7007 10.0933 13.4767 9.576C13.2581 9.05867 13.1487 8.504 13.1487 7.912C13.1487 7.34133 13.2527 6.80533 13.4607 6.304C13.6741 5.80267 13.9701 5.36267 14.3487 4.984C14.7274 4.60533 15.1647 4.30933 15.6607 4.096C16.1567 3.88267 16.6901 3.776 17.2607 3.776C17.7888 3.776 18.2608 3.89333 18.6768 4.128C19.0981 4.36267 19.4554 4.66133 19.7488 5.024L19.6607 4ZM17.3808 10.328C17.7968 10.328 18.1648 10.224 18.4848 10.016C18.8048 9.808 19.0554 9.528 19.2368 9.176C19.4181 8.81867 19.5087 8.42667 19.5087 8C19.5087 7.568 19.4181 7.176 19.2368 6.824C19.0554 6.46667 18.8021 6.184 18.4767 5.976C18.1567 5.768 17.7914 5.664 17.3808 5.664C16.9701 5.664 16.5941 5.77067 16.2527 5.984C15.9167 6.192 15.6474 6.472 15.4447 6.824C15.2474 7.176 15.1487 7.568 15.1487 8C15.1487 8.432 15.2501 8.824 15.4527 9.176C15.6554 9.528 15.9247 9.808 16.2608 10.016C16.6021 10.224 16.9754 10.328 17.3808 10.328ZM25.9669 12.144C25.5509 12.1173 25.1482 12.0347 24.7589 11.896C24.3749 11.752 24.0335 11.5573 23.7349 11.312C23.4362 11.0667 23.2069 10.7733 23.0469 10.432L24.6949 9.728C24.7589 9.83467 24.8629 9.94933 25.0069 10.072C25.1509 10.1893 25.3215 10.288 25.5189 10.368C25.7215 10.448 25.9429 10.488 26.1829 10.488C26.3855 10.488 26.5775 10.4613 26.7589 10.408C26.9455 10.3493 27.0949 10.2613 27.2069 10.144C27.3242 10.0267 27.3829 9.87467 27.3829 9.688C27.3829 9.49067 27.3135 9.33867 27.1749 9.232C27.0415 9.12 26.8709 9.03733 26.6629 8.984C26.4602 8.92533 26.2629 8.872 26.0709 8.824C25.5642 8.72267 25.0922 8.56533 24.6549 8.352C24.2229 8.13867 23.8735 7.864 23.6069 7.528C23.3455 7.18667 23.2149 6.776 23.2149 6.296C23.2149 5.768 23.3535 5.312 23.6309 4.928C23.9135 4.544 24.2789 4.248 24.7269 4.04C25.1802 3.832 25.6682 3.728 26.1909 3.728C26.8255 3.728 27.4069 3.86133 27.9349 4.128C28.4682 4.38933 28.8895 4.76 29.1989 5.24L27.6549 6.152C27.5802 6.024 27.4762 5.90667 27.3429 5.8C27.2095 5.688 27.0575 5.59733 26.8869 5.528C26.7162 5.45333 26.5375 5.41067 26.3509 5.4C26.1109 5.38933 25.8922 5.41067 25.6949 5.464C25.4975 5.51733 25.3375 5.608 25.2149 5.736C25.0975 5.864 25.0389 6.03467 25.0389 6.248C25.0389 6.45067 25.1189 6.60267 25.2789 6.704C25.4389 6.8 25.6309 6.87467 25.8549 6.928C26.0842 6.98133 26.3029 7.04 26.5109 7.104C26.9802 7.25867 27.4202 7.448 27.8309 7.672C28.2469 7.896 28.5802 8.17067 28.8309 8.496C29.0815 8.82133 29.2015 9.21067 29.1909 9.664C29.1909 10.1813 29.0362 10.6347 28.7269 11.024C28.4175 11.408 28.0175 11.7013 27.5269 11.904C27.0415 12.1067 26.5215 12.1867 25.9669 12.144ZM33.32 12.144C32.904 12.1173 32.5013 12.0347 32.112 11.896C31.728 11.752 31.3867 11.5573 31.088 11.312C30.7893 11.0667 30.56 10.7733 30.4 10.432L32.048 9.728C32.112 9.83467 32.216 9.94933 32.36 10.072C32.504 10.1893 32.6747 10.288 32.872 10.368C33.0747 10.448 33.296 10.488 33.536 10.488C33.7387 10.488 33.9307 10.4613 34.112 10.408C34.2987 10.3493 34.448 10.2613 34.56 10.144C34.6773 10.0267 34.736 9.87467 34.736 9.688C34.736 9.49067 34.6667 9.33867 34.528 9.232C34.3947 9.12 34.224 9.03733 34.016 8.984C33.8133 8.92533 33.616 8.872 33.424 8.824C32.9173 8.72267 32.4453 8.56533 32.008 8.352C31.576 8.13867 31.2267 7.864 30.96 7.528C30.6987 7.18667 30.568 6.776 30.568 6.296C30.568 5.768 30.7067 5.312 30.984 4.928C31.2667 4.544 31.632 4.248 32.08 4.04C32.5333 3.832 33.0213 3.728 33.544 3.728C34.1787 3.728 34.76 3.86133 35.288 4.128C35.8213 4.38933 36.2427 4.76 36.552 5.24L35.008 6.152C34.9333 6.024 34.8293 5.90667 34.696 5.8C34.5627 5.688 34.4107 5.59733 34.24 5.528C34.0693 5.45333 33.8907 5.41067 33.704 5.4C33.464 5.38933 33.2453 5.41067 33.048 5.464C32.8507 5.51733 32.6907 5.608 32.568 5.736C32.4507 5.864 32.392 6.03467 32.392 6.248C32.392 6.45067 32.472 6.60267 32.632 6.704C32.792 6.8 32.984 6.87467 33.208 6.928C33.4373 6.98133 33.656 7.04 33.864 7.104C34.3333 7.25867 34.7733 7.448 35.184 7.672C35.6 7.896 35.9333 8.17067 36.184 8.496C36.4347 8.82133 36.5547 9.21067 36.544 9.664C36.544 10.1813 36.3893 10.6347 36.08 11.024C35.7707 11.408 35.3707 11.7013 34.88 11.904C34.3947 12.1067 33.8747 12.1867 33.32 12.144ZM42.1569 12V4H42.6369V5.4C42.9302 4.90933 43.3302 4.51733 43.8369 4.224C44.3435 3.92533 44.9009 3.776 45.5089 3.776C45.8235 3.776 46.1249 3.816 46.4129 3.896L46.2049 4.344C45.9702 4.28533 45.7382 4.256 45.5089 4.256C44.9809 4.256 44.4982 4.38667 44.0609 4.648C43.6289 4.904 43.2822 5.248 43.0209 5.68C42.7649 6.112 42.6369 6.59467 42.6369 7.128V12H42.1569ZM54.8551 4H55.3351V12H54.8551V10.128C54.5671 10.752 54.1458 11.256 53.5911 11.64C53.0365 12.0187 52.3698 12.208 51.5911 12.208C51.0098 12.208 50.4658 12.0987 49.9591 11.88C49.4525 11.6613 49.0045 11.36 48.6151 10.976C48.2311 10.5867 47.9298 10.1387 47.7111 9.632C47.4925 9.12533 47.3831 8.58133 47.3831 8C47.3831 7.41333 47.4925 6.86667 47.7111 6.36C47.9298 5.848 48.2311 5.4 48.6151 5.016C49.0045 4.62667 49.4525 4.32267 49.9591 4.104C50.4658 3.88533 51.0098 3.776 51.5911 3.776C52.3698 3.776 53.0365 3.968 53.5911 4.352C54.1458 4.73067 54.5671 5.232 54.8551 5.856V4ZM51.5911 11.728C52.2791 11.728 52.8631 11.56 53.3431 11.224C53.8285 10.888 54.1965 10.4373 54.4471 9.872C54.6978 9.30667 54.8231 8.68267 54.8231 8C54.8231 7.30133 54.6951 6.66933 54.4391 6.104C54.1831 5.53867 53.8125 5.09067 53.3271 4.76C52.8471 4.424 52.2685 4.256 51.5911 4.256C50.9031 4.256 50.2765 4.424 49.7111 4.76C49.1458 5.096 48.6951 5.54933 48.3591 6.12C48.0285 6.68533 47.8631 7.312 47.8631 8C47.8631 8.69867 48.0338 9.33067 48.3751 9.896C48.7218 10.456 49.1778 10.9013 49.7431 11.232C50.3085 11.5627 50.9245 11.728 51.5911 11.728ZM57.7413 12V4H58.2213V5.4C58.5199 4.90933 58.9199 4.51733 59.4213 4.224C59.9279 3.92533 60.4853 3.776 61.0933 3.776C61.7333 3.776 62.3146 3.93867 62.8373 4.264C63.3653 4.58933 63.7706 5.016 64.0533 5.544C64.3359 5.016 64.7386 4.58933 65.2613 4.264C65.7839 3.93867 66.3653 3.776 67.0053 3.776C67.6239 3.776 68.1866 3.928 68.6933 4.232C69.1999 4.53067 69.6026 4.93333 69.9013 5.44C70.2053 5.94667 70.3573 6.50933 70.3573 7.128V12H69.8773V7.16C69.8773 6.64267 69.7519 6.16533 69.5013 5.728C69.2506 5.28533 68.9146 4.93067 68.4933 4.664C68.0719 4.392 67.6026 4.256 67.0853 4.256C66.5733 4.256 66.1039 4.38133 65.6773 4.632C65.2559 4.87733 64.9199 5.21867 64.6693 5.656C64.4186 6.088 64.2933 6.58933 64.2933 7.16V12H63.8133V7.16C63.8133 6.58933 63.6853 6.088 63.4293 5.656C63.1786 5.21867 62.8426 4.87733 62.4213 4.632C61.9999 4.38133 61.5306 4.256 61.0133 4.256C60.5013 4.256 60.0346 4.392 59.6133 4.664C59.1919 4.93067 58.8533 5.28533 58.5973 5.728C58.3466 6.16533 58.2213 6.64267 58.2213 7.16V12H57.7413ZM72.76 4H73.24V12H72.76V4ZM73.008 2.32C72.9067 2.32 72.8187 2.288 72.744 2.224C72.6747 2.15467 72.64 2.06933 72.64 1.968C72.64 1.86133 72.6747 1.776 72.744 1.712C72.8187 1.648 72.9067 1.616 73.008 1.616C73.104 1.616 73.1867 1.648 73.256 1.712C73.3253 1.776 73.36 1.85867 73.36 1.96C73.36 2.06667 73.3253 2.15467 73.256 2.224C73.1867 2.288 73.104 2.32 73.008 2.32Z" fill="white"/>
<path d="M76.3742 12.208C76.1716 12.208 75.9982 12.136 75.8542 11.992C75.7156 11.848 75.6462 11.672 75.6462 11.464C75.6462 11.2667 75.7156 11.096 75.8542 10.952C75.9982 10.808 76.1716 10.736 76.3742 10.736C76.5822 10.736 76.7582 10.808 76.9022 10.952C77.0462 11.096 77.1182 11.2667 77.1182 11.464C77.1182 11.672 77.0462 11.848 76.9022 11.992C76.7582 12.136 76.5822 12.208 76.3742 12.208Z" fill="#FF0000"/>
</svg>
